<?xml version="1.0" encoding="UTF-8" standalone="no"?>
<!-- Created with Inkscape (http://www.inkscape.org/) -->

<svg
   width="198.21506mm"
   height="88.300079mm"
   viewBox="0 0 198.21506 88.300079"
   version="1.1"
   id="svg1"
   sodipodi:docname="logo.svg"
   inkscape:export-filename="logo.svg"
   inkscape:export-xdpi="96"
   inkscape:export-ydpi="96"
   inkscape:version="1.4.2 (f4327f4, 2025-05-13)"
   xmlns:inkscape="http://www.inkscape.org/namespaces/inkscape"
   xmlns:sodipodi="http://sodipodi.sourceforge.net/DTD/sodipodi-0.dtd"
   xmlns="http://www.w3.org/2000/svg"
   xmlns:svg="http://www.w3.org/2000/svg">
  <sodipodi:namedview
     id="namedview1"
     pagecolor="#ffffff"
     bordercolor="#000000"
     borderopacity="0.25"
     inkscape:showpageshadow="2"
     inkscape:pageopacity="0.0"
     inkscape:pagecheckerboard="0"
     inkscape:deskcolor="#d1d1d1"
     inkscape:document-units="mm"
     inkscape:zoom="1.641173"
     inkscape:cx="166.03977"
     inkscape:cy="201.38035"
     inkscape:window-width="1242"
     inkscape:window-height="1553"
     inkscape:window-x="1308"
     inkscape:window-y="0"
     inkscape:window-maximized="0"
     inkscape:current-layer="layer1" />
  <defs
     id="defs1" />
  <g
     id="layer1"
     transform="translate(-4.3022606,-98.773855)">
    <path
       style="font-weight:500;font-stretch:condensed;font-size:56.7675px;line-height:0.4;font-family:Roboto;-inkscape-font-specification:'Roboto Medium Condensed';letter-spacing:4.43498px;fill:#e5e5e5;stroke-width:0.886992"
       d="M 11.037857,99.328225 V 139.68637 H 4.3022606 V 99.328225 Z m 20.151355,0 -13.443476,19.486115 -8.0660851,9.8955 -1.2750513,-7.0405 5.5714194,-8.26011 9.063952,-14.081005 z m -7.400841,40.358145 -10.228129,-19.07033 4.62899,-4.7953 13.55435,23.86563 z M 66.474888,116.2088 v 6.87419 q 0,4.26865 -0.997866,7.48399 -0.970148,3.21535 -2.827288,5.37739 -1.829421,2.13433 -4.434961,3.21535 -2.577821,1.08102 -5.765449,1.08102 -3.15991,0 -5.76545,-1.08102 -2.577821,-1.08102 -4.462679,-3.21535 -1.85714,-2.16204 -2.882725,-5.37739 -0.997866,-3.21534 -0.997866,-7.48399 v -6.87419 q 0,-4.32409 0.997866,-7.56716 0.997866,-3.27078 2.855006,-5.46054 1.884859,-2.18976 4.46268,-3.298505 2.605539,-1.10874 5.737731,-1.10874 3.187628,0 5.765449,1.10874 2.60554,1.108745 4.46268,3.298505 1.85714,2.18976 2.855006,5.46054 0.997866,3.24307 0.997866,7.56716 z m -6.68016,6.87419 v -6.92963 q 0,-3.07676 -0.498933,-5.26652 -0.471215,-2.21748 -1.413644,-3.6034 -0.942429,-1.41365 -2.328354,-2.07889 -1.358207,-0.69296 -3.15991,-0.69296 -1.746266,0 -3.132192,0.69296 -1.358206,0.66524 -2.328354,2.07889 -0.942429,1.38592 -1.441362,3.6034 -0.471215,2.18976 -0.471215,5.26652 v 6.92963 q 0,3.02131 0.498933,5.21107 0.498933,2.16205 1.441362,3.54797 0.970148,1.35821 2.356073,2.02345 1.385926,0.66525 3.132192,0.66525 1.773984,0 3.15991,-0.66525 1.385925,-0.66524 2.300636,-2.02345 0.942429,-1.38592 1.413643,-3.54797 0.471215,-2.18976 0.471215,-5.21107 z m 30.906155,-1.57996 h -8.232397 l -0.02772,-5.15564 h 7.289967 q 1.690829,0 2.882725,-0.66525 1.191895,-0.66524 1.801702,-1.94029 0.637526,-1.27505 0.637526,-3.07676 0,-1.99573 -0.582088,-3.24306 -0.554371,-1.27505 -1.718548,-1.85714 -1.164177,-0.58209 -2.993599,-0.58209 h -5.294234 v 34.70357 H 77.728621 V 99.328225 h 12.029832 q 2.827288,0 5.044769,0.637526 2.21748,0.637529 3.769717,1.995729 1.579951,1.35821 2.383791,3.40938 0.83156,2.05117 0.83156,4.87846 0,2.46694 -1.05331,4.54583 -1.053301,2.05117 -3.132189,3.38166 -2.05117,1.30277 -5.100205,1.55224 z m -0.249467,18.18334 h -10.20041 l 3.104472,-5.62686 h 7.095938 q 1.801703,0 2.96588,-0.77611 1.164178,-0.77612 1.746266,-2.16205 0.582089,-1.38592 0.582089,-3.24306 0,-1.9403 -0.498933,-3.38166 -0.498933,-1.44136 -1.607674,-2.21748 -1.10874,-0.77612 -2.938161,-0.77612 h -6.791035 l 0.05544,-5.15564 h 8.675893 l 1.552236,1.96801 q 2.910444,0.0554 4.739865,1.44136 1.829418,1.35821 2.688688,3.52025 0.85928,2.16205 0.85928,4.629 0,3.85287 -1.44136,6.48613 -1.413645,2.60554 -4.10234,3.96374 -2.688696,1.33049 -6.486131,1.33049 z m 25.944534,-40.358145 7.09594,19.125765 7.09594,-19.125765 h 7.42856 l -11.14284,25.501025 v 14.85712 h -6.79103 V 124.82925 L 108.93968,99.328225 Z"
       id="path1" />
    <path
       style="font-weight:100;font-size:56.7675px;line-height:1.25;font-family:Roboto;-inkscape-font-specification:'Roboto Thin';letter-spacing:2.21748px;fill:#cccccc;stroke-width:0.886992"
       d="m 5.7990606,146.16142 v 40.35814 h -1.4968 v -40.35814 z m 20.6780004,18.95945 v 1.55224 H 4.7180406 v -1.55224 z m 2.82729,-18.95945 v 1.4968 H 4.7180406 v -1.4968 z m 16.57567,1.27505 -14.57994,39.08309 h -1.63539 l 15.10659,-40.35814 h 1.44136 z m 14.19187,39.08309 -14.57993,-39.08309 -0.30491,-1.27505 h 1.41365 l 15.10658,40.35814 z m -4.26865,-13.55435 v 1.4968 h -20.20679 v -1.4968 z m 36.83789,12.05755 v 1.4968 h -21.67587 v -1.4968 z m -20.70572,-38.86134 v 40.35814 h -1.52452 v -40.35814 z m 52.221679,38.86134 v 1.4968 h -21.67587 v -1.4968 z m -20.70573,-38.86134 v 40.35814 h -1.52451 v -40.35814 z m 56.76751,17.15775 v 6.04264 q 0,3.93602 -1.08103,7.20681 -1.0533,3.24306 -3.04903,5.59914 -1.96801,2.35607 -4.76758,3.63112 -2.79957,1.27505 -6.29211,1.27505 -3.46481,0 -6.2921,-1.27505 -2.79957,-1.27505 -4.82302,-3.63112 -1.99573,-2.35608 -3.07675,-5.59914 -1.0533,-3.27079 -1.0533,-7.20681 v -6.04264 q 0,-3.96374 1.0533,-7.20681 1.08102,-3.24307 3.07675,-5.59914 1.99574,-2.35607 4.79531,-3.63112 2.79956,-1.27505 6.26438,-1.27505 3.49253,0 6.2921,1.27505 2.79957,1.27505 4.7953,3.63112 2.02345,2.35607 3.07675,5.59914 1.08103,3.24307 1.08103,7.20681 z m -1.4968,6.04264 v -6.09808 q 0,-3.54796 -0.91471,-6.48613 -0.91471,-2.96588 -2.6887,-5.12792 -1.77398,-2.16204 -4.32409,-3.35394 -2.5501,-1.19189 -5.82088,-1.19189 -3.24307,0 -5.79317,1.19189 -2.52238,1.1919 -4.29637,3.35394 -1.74626,2.16204 -2.66098,5.12792 -0.91471,2.93817 -0.91471,6.48613 v 6.09808 q 0,3.57568 0.91471,6.54156 0.94243,2.96588 2.6887,5.12793 1.77398,2.16204 4.32409,3.35394 2.5501,1.19189 5.79316,1.19189 3.27079,0 5.79317,-1.19189 2.55011,-1.1919 4.29637,-3.35394 1.77399,-2.16205 2.6887,-5.12793 0.91471,-2.96588 0.91471,-6.54156 z m 42.02126,-23.20039 v 40.35814 h -1.4968 l -26.0554,-37.80804 v 37.80804 h -1.52452 v -40.35814 h 1.52452 l 26.0554,37.72488 v -37.72488 z"
       id="path2" />
  </g>
</svg>
